:FULLY-SPECIFIED
:FORCE-ALL-JOINTS-BE-3DOF
:DEGREES
211
root 8.33032 16.5057 -7.87084 8.02144 0.0992145 -5.76998
lfemur -43.9644 -3.02121 -10.4458
ltibia 20.6764 0 0
lfoot -17.0544 15.5005 0
ltoes -15.0271 0 0
rfemur 10.2027 5.52875 31.4129
rtibia 1.90833e-14 0 0
rfoot -12.3628 5.48057 0
rtoes -7.94378 0 0
lowerback -7.13788 2.38145 3.2314
upperback -0.881891 2.79721 3.76278
thorax 3.05436 1.41186 2.3506
lowerneck -16.0094 -6.48103 -14.5454
upperneck 14.841 -8.22255 14.9955
head 8.51353 -3.37244 6.49326
lclavicle -4.37326e-14 -1.11319e-14 0
lhumerus -50.7834 -11.0215 97.2238
lradius 26.7843 0 0
lwrist 9.87187 0 0
lhand -12.6626 -24.8796 0
lfingers 7.12502 0 0
lthumb 13.4184 4.66819 0
rclavicle -4.37326e-14 -1.11319e-14 0
rhumerus -36.9024 12.3182 -82.4905
rradius 53.1376 0 0
rwrist -27.207 0 0
rhand -32.5618 -28.7367 0
rfingers 7.12502 0 0
rthumb -5.79114 -58.6376 0
212
root 8.34982 16.489 -7.71867 8.12744 -0.179614 -5.90155
lfemur -44.2218 -2.81351 -10.3069
ltibia 20.6354 -0 0
lfoot -16.9624 15.5798 0.000318207
ltoes -16.1577 0 0
rfemur 10.6689 5.64126 31.4548
rtibia 8.48145e-15 0 0
rfoot -12.4364 5.66117 -0.000580261
rtoes -8.49278 0 0
lowerback -7.28783 2.44601 3.32638
upperback -0.882072 2.86594 3.77091
thorax 3.14152 1.44714 2.32155
lowerneck -15.8703 -6.44531 -14.5629
upperneck 14.7198 -8.18261 15.0398
head 8.44478 -3.35718 6.51614
lclavicle -2.70305e-14 -1.45772e-15 0
lhumerus -50.7876 -10.8006 97.0169
lradius 26.5182 -0 0
lwrist 9.18514 0 0
lhand -13.3581 -26.8955 0.0613501
lfingers 7.12502 0 0
lthumb 12.7476 2.68944 0.0580735
rclavicle -2.70305e-14 -1.45772e-15 0
rhumerus -37.1326 12.4875 -82.7861
rradius 53.2512 -0 0
rwrist -27.1494 0 0
rhand -32.3912 -28.6995 0.000276857
rfingers 7.12502 0 0
rthumb -5.62645 -58.6045 0.000237741
213
root 8.36932 16.4722 -7.56649 8.23408 -0.458199 -6.03364
lfemur -44.4787 -2.6052 -10.1689
ltibia 20.5943 -0 0
lfoot -16.8704 15.6591 0.000509131
ltoes -17.2882 0 0
rfemur 11.1353 5.75343 31.4976
rtibia -2.1204e-15 0 0
rfoot -12.5101 5.84178 -0.000928421
rtoes -9.04179 0 0
lowerback -7.43768 2.51083 3.4212
upperback -0.882243 2.93467 3.77904
thorax 3.22866 1.48247 2.29255
lowerneck -15.7312 -6.40954 -14.5803
upperneck 14.5987 -8.14257 15.0841
head 8.37604 -3.34189 6.539
lclavicle -1.03285e-14 8.21647e-15 0
lhumerus -50.7926 -10.5797 96.8102
lradius 26.2521 -0 0
lwrist 8.4984 0 0
lhand -14.0552 -28.912 0.0981942
lfingers 7.12502 0 0
lthumb 12.0753 0.710152 0.0929485
rclavicle -1.03285e-14 8.21647e-15 0
rhumerus -37.3639 12.6557 -83.0825
rradius 53.3648 -0 0
rwrist -27.0918 0 0
rhand -32.2207 -28.6623 0.000442973
rfingers 7.12502 0 0
rthumb -5.46175 -58.5714 0.000380387
214
root 8.38882 16.4555 -7.41432 8.34138 -0.736536 -6.16626
lfemur -44.7351 -2.39627 -10.0319
ltibia 20.5533 -0 0
lfoot -16.7784 15.7384 0.000572773
ltoes -18.4188 0 0
rfemur 11.6018 5.86524 31.5413
rtibia -1.27222e-14 0 0
rfoot -12.5837 6.02239 -0.00104447
rtoes -9.59079 0 0
lowerback -7.58744 2.57588 3.51585
upperback -0.882404 3.00339 3.78717
thorax 3.31578 1.51784 2.2636
lowerneck -15.5921 -6.37374 -14.5976
upperneck 14.4776 -8.10244 15.1282
head 8.30731 -3.32658 6.56183
lclavicle 6.37355e-15 1.78906e-14 0
lhumerus -50.7984 -10.3588 96.6036
lradius 25.986 -0 0
lwrist 7.81166 0 0
lhand -14.7533 -30.9288 0.110481
lfingers 7.12502 0 0
lthumb 11.4021 -1.26942 0.104579
rclavicle 6.37355e-15 1.78906e-14 0
rhumerus -37.5963 12.8227 -83.3799
rradius 53.4785 -0 0
rwrist -27.0343 0 0
rhand -32.0501 -28.6251 0.000498345
rfingers 7.12502 0 0
rthumb -5.29706 -58.5384 0.000427935
215
root 8.40832 16.4388 -7.26215 8.44932 -1.01462 -6.29941
lfemur -44.9909 -2.18673 -9.89588
ltibia 20.5123 -0 0
lfoot -16.6865 15.8176 0.000509131
ltoes -19.5494 0 0
rfemur 12.0686 5.9767 31.5859
rtibia -2.33241e-14 0 0
rfoot -12.6573 6.20299 -0.000928421
rtoes -10.1398 0 0
lowerback -7.73709 2.64119 3.61034
upperback -0.882555 3.07212 3.79531
thorax 3.40289 1.55325 2.23471
lowerneck -15.453 -6.33789 -14.6149
upperneck 14.3565 -8.06222 15.1723
head 8.23858 -3.31124 6.58466
lclavicle 2.30756e-14 2.75648e-14 0
lhumerus -50.805 -10.138 96.3971
lradius 25.7198 -0 0
lwrist 7.12493 0 0
lhand -15.4514 -32.9456 0.0981942
lfingers 7.12502 0 0
lthumb 10.729 -3.24898 0.0929485
rclavicle 2.30756e-14 2.75648e-14 0
rhumerus -37.8296 12.9885 -83.6781
rradius 53.5921 -0 0
rwrist -26.9767 0 0
rhand -31.8795 -28.5879 0.000442973
rfingers 7.12502 0 0
rthumb -5.13237 -58.5053 0.000380387
216
root 8.42782 16.422 -7.10997 8.55792 -1.29246 -6.43309
lfemur -45.2462 -1.97658 -9.76079
ltibia 20.4712 -0 0
lfoot -16.5945 15.8969 0.000318207
ltoes -20.6799 0 0
rfemur 12.5355 6.08779 31.6315
rtibia -3.39259e-14 0 0
rfoot -12.731 6.3836 -0.000580261
rtoes -10.6888 0 0
lowerback -7.88664 2.70674 3.70466
upperback -0.882697 3.14085 3.80344
thorax 3.48998 1.58871 2.20587
lowerneck -15.3139 -6.302 -14.632
upperneck 14.2355 -8.02191 15.2162
head 8.16986 -3.29587 6.60746
lclavicle 3.97777e-14 3.7239e-14 0
lhumerus -50.8124 -9.91717 96.1908
lradius 25.4537 -0 0
lwrist 6.43819 0 0
lhand -16.1485 -34.9621 0.0613501
lfingers 7.12502 0 0
lthumb 10.0566 -5.22827 0.0580735
rclavicle 3.97777e-14 3.7239e-14 0
rhumerus -38.0641 13.1531 -83.9773
rradius 53.7057 -0 0
rwrist -26.9191 0 0
rhand -31.709 -28.5507 0.000276857
rfingers 7.12502 0 0
rthumb -4.96767 -58.4722 0.000237741
217
root 8.44732 16.4053 -6.9578 8.66718 -1.57004 -6.56732
lfemur -45.5009 -1.76584 -9.62666
ltibia 20.4302 0 0
lfoot -16.5025 15.9762 0
ltoes -21.8105 0 0
rfemur 13.0026 6.19851 31.678
rtibia -4.45278e-14 0 0
rfoot -12.8046 6.5642 0
rtoes -11.2378 0 0
lowerback -8.03609 2.77254 3.79881
upperback -0.882829 3.20958 3.81157
thorax 3.57706 1.62421 2.17708
lowerneck -15.1749 -6.26607 -14.6491
upperneck 14.1145 -7.9815 15.2601
head 8.10115 -3.28047 6.63024
lclavicle 5.64797e-14 4.69132e-14 0
lhumerus -50.8206 -9.69637 95.9845
lradius 25.1876 0 0
lwrist 5.75146 0 0
lhand -16.844 -36.978 0
lfingers 7.12502 0 0
lthumb 9.38584 -7.20702 0
rclavicle 5.64797e-14 4.69132e-14 0
rhumerus -38.2995 13.3165 -84.2773
rradius 53.8193 0 0
rwrist -26.8615 0 0
rhand -31.5384 -28.5135 0
rfingers 7.12502 0 0
rthumb -4.80298 -58.4391 0
218
root 8.4688 16.377 -6.79461 8.76591 -1.84657 -6.69762
lfemur -45.6123 -1.05777 -9.87578
ltibia 20.9976 -0 0
lfoot -16.2343 15.463 -0.00600765
ltoes -20.0187 0 0
rfemur 13.5256 6.31441 31.6809
rtibia -3.4456e-14 0 0
rfoot -12.6992 6.69936 0.0006218
rtoes -11.3693 0 0
lowerback -8.0823 2.78274 3.81401
upperback -0.933606 3.21983 3.84526
thorax 3.54879 1.62885 2.20547
lowerneck -15.2607 -6.22406 -14.5496
upperneck 14.2763 -7.93794 15.1832
head 8.15475 -3.25635 6.59527
lclavicle 4.30286e-14 3.2667e-14 0
lhumerus -50.8604 -9.38841 95.6268
lradius 24.9334 -0 0
lwrist 4.70215 0 0
lhand -15.6292 -35.2477 0.0919796
lfingers 7.12502 0 0
lthumb 10.557 -5.5509 0.084853
rclavicle 4.30286e-14 3.2667e-14 0
rhumerus -38.5426 13.4159 -84.5471
rradius 53.6112 -0 0
rwrist -26.6394 0 0
rhand -31.5957 -28.9438 0.00107558
rfingers 7.12502 0 0
rthumb -4.85829 -58.8681 0.00103542
219
root 8.49028 16.3487 -6.63142 8.86528 -2.12286 -6.82842
lfemur -45.7268 -0.350187 -10.1262
ltibia 21.565 -0 0
lfoot -15.966 14.9497 -0.00961248
ltoes -18.2269 0 0
rfemur 14.0487 6.43029 31.6848
rtibia -2.43843e-14 0 0
rfoot -12.5937 6.83452 0.000994882
rtoes -11.5009 0 0
lowerback -8.1285 2.79294 3.82921
upperback -0.984378 3.2301 3.87895
thorax 3.52053 1.6335 2.23387
lowerneck -15.3464 -6.18189 -14.4502
upperneck 14.438 -7.89417 15.1065
head 8.20833 -3.2322 6.56032
lclavicle 2.95775e-14 1.84207e-14 0
lhumerus -50.9021 -9.0807 95.2693
lradius 24.6791 -0 0
lwrist 3.65284 0 0
lhand -14.4122 -33.5158 0.147218
lfingers 7.12502 0 0
lthumb 11.7301 -3.89339 0.135808
rclavicle 2.95775e-14 1.84207e-14 0
rhumerus -38.7863 13.5141 -84.8174
rradius 53.4032 -0 0
rwrist -26.4172 0 0
rhand -31.653 -29.3741 0.00172096
rfingers 7.12502 0 0
rthumb -4.9136 -59.2971 0.0016567
220
root 8.51176 16.3203 -6.46823 8.96531 -2.39894 -6.95972
lfemur -45.8444 0.356885 -10.3781
ltibia 22.1324 -0 0
lfoot -15.6978 14.4365 -0.0108141
ltoes -16.4351 0 0
rfemur 14.572 6.54612 31.6899
rtibia -1.43125e-14 0 0
rfoot -12.4883 6.96969 0.00111924
rtoes -11.6324 0 0
lowerback -8.17471 2.80316 3.84439
upperback -1.03514 3.24041 3.91262
thorax 3.49227 1.63816 2.26226
lowerneck -15.432 -6.13958 -14.3509
upperneck 14.5996 -7.85018 15.0299
head 8.2619 -3.20801 6.52539
lclavicle 1.61264e-14 4.1745e-15 0
lhumerus -50.9457 -8.77325 94.9118
lradius 24.4248 -0 0
lwrist 2.60353 0 0
lhand -13.194 -31.7831 0.165639
lfingers 7.12502 0 0
lthumb 12.9043 -2.23519 0.152799
rclavicle 1.61264e-14 4.1745e-15 0
rhumerus -39.0306 13.6113 -85.0883
rradius 53.1951 -0 0
rwrist -26.1951 0 0
rhand -31.7103 -29.8044 0.00193609
rfingers 7.12502 0 0
rthumb -4.96891 -59.7261 0.0018638
221
root 8.53325 16.292 -6.30505 9.06599 -2.67478 -7.09154
lfemur -45.9651 1.06343 -10.6315
ltibia 22.6999 -0 0
lfoot -15.4295 13.9232 -0.00961248
ltoes -14.6432 0 0
rfemur 15.0954 6.6619 31.6959
rtibia -4.24073e-15 0 0
rfoot -12.3829 7.10485 0.000994882
rtoes -11.7639 0 0
lowerback -8.22091 2.8134 3.85957
upperback -1.08591 3.25074 3.94629
thorax 3.46401 1.64284 2.29064
lowerneck -15.5176 -6.09713 -14.2517
upperneck 14.7611 -7.80597 14.9534
head 8.31545 -3.18379 6.49049
lclavicle 2.6753e-15 -1.00717e-14 0
lhumerus -50.9912 -8.46608 94.5543
lradius 24.1706 -0 0
lwrist 1.55421 0 0
lhand -11.9758 -30.0504 0.147218
lfingers 7.12502 0 0
lthumb 14.0784 -0.576977 0.135808
rclavicle 2.6753e-15 -1.00717e-14 0
rhumerus -39.2754 13.7073 -85.3597
rradius 52.987 -0 0
rwrist -25.973 0 0
rhand -31.7675 -30.2348 0.00172096
rfingers 7.12502 0 0
rthumb -5.02423 -60.1552 0.0016567
